<?xml version="1.0" standalone="no"?>
<!DOCTYPE svg PUBLIC "-//W3C//DTD SVG 20010904//EN"
 "http://www.w3.org/TR/2001/REC-SVG-20010904/DTD/svg10.dtd">
<svg version="1.0" xmlns="http://www.w3.org/2000/svg"
 width="400.000000pt" height="400.000000pt" viewBox="0 0 400.000000 400.000000"
 preserveAspectRatio="xMidYMid meet">
<metadata>
Created by potrace 1.11, written by Peter Selinger 2001-2013
</metadata>
<g transform="translate(0.000000,400.000000) scale(0.100000,-0.100000)"
fill="#000000" stroke="none">
<path d="M1936 3413 c-136 -25 -362 -121 -431 -182 -11 -10 -27 -22 -36 -27
-42 -23 -163 -134 -228 -210 -33 -39 -121 -168 -121 -179 0 -3 -11 -28 -25
-57 -32 -67 -63 -186 -69 -264 -2 -34 -9 -71 -15 -81 -16 -31 -23 -83 -11 -83
6 0 9 -4 6 -9 -3 -5 1 -11 9 -15 8 -3 15 -10 15 -15 0 -15 48 -60 55 -52 4 3
5 1 4 -4 -6 -20 30 -71 83 -120 70 -64 95 -84 100 -79 3 2 11 -7 18 -21 7 -14
17 -25 21 -25 4 0 21 -13 38 -29 17 -16 45 -36 61 -43 17 -7 30 -16 30 -20 0
-5 6 -8 14 -8 9 0 12 -8 8 -25 -2 -14 -8 -23 -12 -20 -8 5 -70 -51 -70 -64 0
-4 -9 -19 -20 -32 -11 -13 -23 -28 -28 -34 -12 -15 -41 -89 -47 -122 -3 -15
-8 -44 -12 -63 -12 -61 -8 -146 8 -160 3 -3 20 -32 38 -65 19 -33 38 -63 43
-66 5 -3 9 -9 8 -13 -8 -33 86 -264 111 -274 5 -2 9 -8 9 -13 0 -6 -4 -8 -9
-5 -5 3 -11 -1 -15 -9 -3 -8 0 -15 7 -15 7 0 3 -6 -8 -12 -29 -17 -36 -30 -29
-58 4 -14 8 -36 10 -50 2 -14 5 -32 7 -40 4 -22 40 -80 50 -80 4 0 5 -4 2 -10
-3 -5 1 -10 9 -10 9 0 16 -5 16 -11 0 -5 4 -8 9 -5 5 4 12 0 14 -6 4 -10 6
-10 6 -1 1 9 8 10 27 3 16 -7 23 -7 19 0 -3 6 1 10 9 10 9 0 16 -4 16 -10 0
-5 9 -10 20 -10 11 0 20 -6 20 -14 0 -8 4 -18 10 -21 6 -4 7 1 3 11 -4 12 -3
15 5 10 7 -4 12 -16 12 -26 0 -33 48 -80 82 -80 16 0 28 -3 26 -8 -27 -61 -93
-188 -100 -190 -4 -2 -8 -8 -8 -13 0 -5 -7 -21 -16 -34 -9 -14 -18 -42 -20
-63 -2 -20 -6 -58 -8 -84 -3 -27 -1 -48 5 -48 5 0 8 -6 6 -13 -1 -6 4 -11 11
-10 6 2 12 -2 12 -8 0 -5 6 -7 13 -3 9 6 9 4 -1 -8 -11 -14 -10 -16 5 -13 10
2 31 4 46 4 16 1 26 5 23 10 -4 5 5 8 19 6 14 -1 28 1 30 5 3 4 22 8 43 8 21
0 42 2 48 3 5 1 11 0 14 -1 12 -6 100 -5 100 2 0 3 12 8 28 10 16 2 27 9 27
18 0 8 17 23 38 32 42 19 45 41 6 46 -13 2 -34 15 -46 29 -13 13 -23 20 -23
16 0 -4 -4 -2 -9 5 -4 7 -24 14 -44 15 -20 1 -37 6 -37 10 0 4 -10 3 -21 -4
-15 -8 -19 -8 -15 0 4 6 0 11 -8 11 -20 0 -20 0 0 39 9 17 17 37 18 44 2 7 8
26 16 42 7 17 17 41 22 55 6 14 16 36 22 50 7 14 11 45 10 70 -1 25 1 49 4 55
9 13 8 152 -1 185 -16 57 -19 78 -22 145 -4 103 -4 103 60 100 30 -2 55 1 55
5 0 5 8 7 17 6 10 -2 39 3 64 9 37 10 46 10 46 0 0 -7 -6 -11 -14 -8 -7 3 -13
-1 -13 -10 0 -8 -6 -27 -14 -41 -20 -39 -9 -97 37 -189 22 -45 42 -85 43 -89
1 -5 3 -11 4 -15 6 -18 5 -59 -2 -69 -4 -6 -5 -21 -2 -35 3 -13 9 -41 14 -63
4 -21 12 -41 16 -45 5 -3 10 -17 10 -31 1 -14 5 -38 10 -55 12 -47 9 -132 -7
-152 -12 -16 -11 -16 9 1 25 21 26 19 12 -20 -9 -24 -9 -25 5 -14 18 15 19 7
4 -22 -10 -18 -9 -20 5 -15 10 4 33 -4 56 -19 22 -15 44 -23 51 -18 8 5 9 3 4
-6 -6 -10 -4 -12 9 -7 9 4 15 3 11 -2 -6 -10 18 -16 110 -28 73 -9 89 -9 138
1 47 9 49 32 7 79 -16 19 -30 42 -30 51 0 22 -48 70 -87 85 -50 20 -65 43 -69
111 -2 33 -10 87 -19 119 -8 32 -15 67 -15 77 0 11 -6 31 -14 45 -27 52 -63
175 -65 221 -1 9 -8 23 -16 31 -8 9 -19 48 -25 88 -9 66 -23 94 -40 84 -3 -2
-11 5 -18 15 -7 12 -8 21 -2 25 6 4 7 11 4 17 -4 7 -2 8 5 4 6 -4 14 0 18 11
4 9 16 27 27 38 12 11 22 27 24 35 2 8 9 18 15 22 7 4 8 8 3 8 -5 0 -3 7 4 15
6 8 9 23 6 33 -8 25 1 49 20 49 10 0 11 -4 4 -11 -13 -13 -13 -29 -1 -21 5 3
12 1 16 -5 3 -5 0 -10 -7 -11 -7 0 -3 -4 10 -9 12 -5 22 -17 22 -25 0 -9 5
-13 10 -10 6 3 10 -1 10 -9 0 -9 3 -16 8 -16 4 -1 21 -12 37 -26 17 -15 24
-23 18 -20 -7 4 -13 5 -13 2 0 -3 10 -10 21 -17 16 -8 20 -8 14 1 -6 9 -2 9
14 1 11 -7 21 -16 21 -21 0 -6 7 -10 15 -10 14 0 53 -18 65 -30 6 -6 37 -11
64 -11 11 0 30 13 44 28 13 15 30 27 38 25 8 -2 14 1 14 6 0 5 9 12 20 15 15
4 24 -4 42 -39 12 -24 25 -44 30 -44 4 0 8 -6 8 -14 0 -18 45 -47 79 -51 14
-1 46 -6 71 -10 39 -6 47 -4 58 15 12 20 11 20 -7 11 -26 -14 -28 -14 -28 3 0
8 5 14 11 13 6 -1 10 6 10 15 -1 10 2 16 6 13 10 -6 42 36 35 44 -3 2 -12 -4
-21 -15 -15 -18 -15 -18 -5 3 8 16 8 23 -2 26 -9 4 -9 6 0 6 7 1 10 8 7 16 -4
8 -2 15 4 15 6 0 12 -6 15 -12 3 -7 4 -3 4 10 -1 12 -5 22 -10 22 -4 0 -5 5
-2 10 4 6 2 16 -3 23 -16 21 -29 105 -33 215 -2 54 0 62 23 66 47 10 118 64
118 90 0 8 8 17 17 20 12 5 14 9 5 18 -9 9 -8 16 4 29 27 30 11 96 -36 148
l-39 43 -78 -10 c-61 -8 -91 -17 -137 -46 -64 -38 -85 -62 -92 -103 -3 -15 -7
-30 -10 -34 -2 -4 0 -10 6 -14 5 -3 10 -21 10 -39 0 -38 24 -64 66 -72 16 -3
30 -7 32 -9 2 -2 14 0 27 5 17 7 27 5 37 -7 10 -13 10 -15 0 -9 -10 6 -12 -2
-11 -31 1 -37 16 -131 25 -165 4 -14 1 -16 -12 -11 -12 4 -15 3 -10 -5 4 -7 1
-12 -7 -12 -8 0 -14 -8 -13 -17 0 -10 -7 -19 -16 -21 -26 -5 -23 35 2 43 35
11 22 21 -26 20 -28 0 -49 -6 -54 -15 -6 -8 -10 -10 -10 -5 0 6 -7 1 -15 -9
-15 -19 -15 -19 -15 5 0 40 -3 59 -11 59 -4 0 -10 11 -13 25 -4 14 -10 25 -15
25 -5 0 -24 16 -43 36 -29 31 -61 50 -133 79 -11 5 -60 9 -109 10 -75 2 -93 0
-109 -16 -15 -13 -24 -16 -33 -8 -8 7 -14 6 -17 -3 -3 -7 -4 1 -3 17 2 29 -5
54 -27 103 -8 16 -13 19 -19 10 -5 -9 -8 -10 -8 -1 0 6 7 19 16 27 14 15 14
16 -3 16 -26 0 -27 47 -2 55 11 4 17 10 14 15 -3 4 5 6 17 2 16 -4 19 -2 13 8
-5 8 -4 11 1 7 10 -6 119 21 219 55 57 19 132 65 122 75 -3 2 2 25 10 51 25
81 42 150 58 237 1 6 3 12 4 15 15 33 18 243 6 355 -5 44 -9 93 -8 108 0 21
-2 25 -9 15 -7 -9 -8 -5 -5 15 2 15 0 27 -4 27 -5 0 -9 5 -9 11 0 5 4 8 10 4
5 -3 5 7 -1 25 -6 16 -17 30 -25 30 -8 0 -14 5 -14 11 0 5 5 7 11 3 7 -4 10
-1 7 7 -3 8 -11 14 -19 14 -7 0 -15 9 -17 20 -3 17 -1 18 8 5 10 -13 11 -13 7
0 -2 8 -9 14 -15 13 -6 -2 -17 7 -23 20 -12 21 -11 21 7 7 18 -14 18 -13 -1
10 -11 14 -26 29 -32 33 -7 4 -13 15 -13 22 0 8 -4 15 -9 15 -5 0 -14 14 -21
31 -43 103 -237 309 -333 353 -64 30 -133 54 -177 62 -70 12 -208 11 -284 -3z
m1109 -2119 c-12 -24 -12 -29 8 -45 16 -13 18 -18 7 -19 -25 0 -37 14 -36 42
1 14 -2 24 -6 22 -4 -3 -8 -12 -8 -20 0 -8 -6 -14 -12 -15 -10 0 -10 -2 0 -6
6 -2 12 -11 12 -20 0 -8 -6 -13 -12 -10 -20 6 -11 56 14 77 34 29 50 26 33 -6z
m-1331 -224 c6 0 18 -11 27 -23 17 -23 17 -69 1 -122 -5 -16 -7 -36 -4 -44 3
-8 0 -11 -7 -7 -6 4 -11 1 -11 -6 -1 -8 -6 -6 -15 6 -8 11 -19 15 -27 10 -7
-4 -10 -4 -6 1 10 10 -36 46 -62 48 -11 1 -20 5 -20 10 0 4 -4 6 -9 3 -4 -3
-16 1 -26 8 -18 13 -18 14 3 20 12 4 22 14 22 22 0 8 4 14 8 14 5 0 19 19 32
43 30 54 39 59 63 36 12 -10 26 -19 31 -19z m104 -477 c3 -61 -29 -86 -73 -57
-32 21 -34 53 -2 52 12 -1 29 -6 37 -12 8 -6 12 -6 8 -2 -6 7 13 30 28 36 0 0
1 -8 2 -17z m317 -462 c3 -5 0 -13 -6 -17 -7 -4 -9 -3 -5 4 3 5 0 13 -6 15 -9
4 -10 6 -1 6 6 1 14 -3 18 -8z m615 -16 c0 -8 -4 -15 -10 -15 -5 0 -7 7 -4 15
4 8 8 15 10 15 2 0 4 -7 4 -15z m-43 -21 c-3 -3 -12 -4 -19 -1 -8 3 -5 6 6 6
11 1 17 -2 13 -5z"/>
<path d="M1750 569 c0 -5 5 -7 10 -4 6 3 10 8 10 11 0 2 -4 4 -10 4 -5 0 -10
-5 -10 -11z"/>
<path d="M2940 2229 c0 -5 5 -7 10 -4 6 3 10 8 10 11 0 2 -4 4 -10 4 -5 0 -10
-5 -10 -11z"/>
<path d="M3250 1073 c-31 -32 -32 -34 -7 -18 15 10 32 26 38 36 13 26 10 23
-31 -18z"/>
<path d="M1652 550 c-14 -23 -16 -60 -3 -60 5 0 7 10 3 22 -3 11 -1 19 4 16 5
-4 10 5 10 18 2 29 2 29 -14 4z"/>
<path d="M1736 475 c8 -19 -45 -21 -66 -2 -12 10 -12 9 -1 -5 15 -21 61 -24
79 -6 16 16 15 28 -3 28 -9 0 -12 -6 -9 -15z"/>
</g>
</svg>
